<svg width="128" height="128" viewBox="0 0 128 128" fill="none" xmlns="http://www.w3.org/2000/svg">
  <!-- Background circle -->
  <circle cx="64" cy="64" r="64" fill="#2563eb"/>
  
  <!-- Chef hat icon -->
  <path d="M64 20C54 20 46 26 46 34V38C46 38.5 46.2 39 46.5 39.5L42 50C40 54 42 58 46 60L50 62C50 62 50 64 52 64H76C78 64 78 62 78 62L82 60C86 58 88 54 86 50L81.5 39.5C81.8 39 82 38.5 82 38V34C82 26 74 20 64 20Z" fill="white"/>
  
  <!-- Chef hat details -->
  <path d="M64 20C60 20 57 21 54 22.5V34C54 34.5 54.2 35 54.5 35.5L50 46C49 48 49.5 50 51.5 51L55 52.5C55 52.5 55 54 57 54H71C73 54 73 52.5 73 52.5L76.5 51C78.5 50 79 48 78 46L73.5 35.5C73.8 35 74 34.5 74 34V22.5C71 21 68 20 64 20Z" fill="#2563eb" opacity="0.3"/>
  
  <!-- Utensil handles -->
  <rect x="40" y="70" width="4" height="20" rx="2" fill="white"/>
  <rect x="84" y="70" width="4" height="20" rx="2" fill="white"/>
  
  <!-- Spoon -->
  <ellipse cx="42" cy="95" rx="6" ry="3" fill="white"/>
  
  <!-- Fork -->
  <path d="M88 95L88 98M88 95L90 97M88 95L86 97M88 98L90 100M88 98L86 100" stroke="white" stroke-width="2" stroke-linecap="round"/>
</svg>



